<svg width="85" height="31" viewBox="0 0 85 31" fill="none" xmlns="http://www.w3.org/2000/svg">
<path d="M84.4066 12.3044C83.7888 10.9201 82.7776 9.74815 81.4987 8.93433C80.2199 8.12051 78.7299 7.7008 77.2143 7.72745C75.6737 7.72726 74.1666 8.17723 72.8782 9.02204C71.5899 9.86685 70.5765 11.0697 69.9625 12.4827C69.5465 13.4337 69.3681 14.4442 69.3681 15.4547C69.3519 16.4946 69.5457 17.5271 69.938 18.4903C70.3302 19.4535 70.9129 20.3276 71.6511 21.0603C72.3893 21.7929 73.2678 22.369 74.2339 22.754C75.2001 23.139 76.234 23.325 77.2737 23.3009C78.3253 23.297 79.3657 23.0848 80.3349 22.6768C81.3041 22.2687 82.1829 21.6727 82.9206 20.9233C83.6933 20.1505 84.2877 19.14 84.7038 18.1295H80.6024C80.2912 18.6026 79.8866 19.0071 79.4136 19.3184C78.8283 19.638 78.1779 19.8204 77.5117 19.8516C76.8455 19.8829 76.1809 19.7623 75.5682 19.4989C74.9555 19.2355 74.4107 18.8362 73.975 18.3312C73.5393 17.8262 73.2242 17.2288 73.0535 16.5841H84.9416L85.0604 16.0491C85.1764 14.7709 84.9721 13.4839 84.466 12.3044H84.4066ZM72.9346 13.8498C73.3137 13.0429 73.9147 12.3607 74.6673 11.8827C75.4199 11.4048 76.293 11.151 77.1846 11.151C78.0761 11.151 78.9492 11.4048 79.7018 11.8827C80.4544 12.3607 81.0554 13.0429 81.4346 13.8498H72.9346Z" fill="#0B0A0A"/>
<path d="M20.507 30.7312V21.934C21.9713 22.9025 23.7164 23.3561 25.467 23.2231C27.2176 23.0901 28.8742 22.3782 30.1754 21.1996C31.4767 20.021 32.3486 18.4427 32.6536 16.7138C32.9587 14.9848 32.6795 13.2035 31.8601 11.6508C31.0242 10.1042 29.6965 8.88047 28.0871 8.17297C26.4778 7.46546 24.6785 7.31457 22.9738 7.74416C21.269 8.17375 19.7561 9.15931 18.6743 10.545C17.5924 11.9307 17.0032 13.6375 17 15.3955V30.7906H20.507V30.7312ZM24.9056 10.9969C25.5581 11.0028 26.2014 11.152 26.79 11.4337C27.3786 11.7155 27.8981 12.123 28.312 12.6276C28.7258 13.1321 29.0239 13.7214 29.185 14.3537C29.3462 14.986 29.3666 15.646 29.2448 16.2871C29.0708 17.1472 28.6436 17.9356 28.018 18.5509C27.3925 19.1663 26.5972 19.5805 25.7344 19.7402C24.8716 19.9 23.9807 19.7981 23.1763 19.4475C22.3719 19.097 21.6907 18.5139 21.2203 17.7731C20.7913 17.1055 20.5509 16.3342 20.5246 15.541C20.4983 14.7479 20.6871 13.9624 21.0709 13.2678C21.4548 12.5732 22.0194 11.9954 22.705 11.5956C23.3905 11.1958 24.1715 10.9889 24.965 10.9969H24.9056ZM12.0664 15.0389C12.0664 16.6438 11.6503 17.8326 10.8776 18.7242C10.3336 19.253 9.65525 19.623 8.91608 19.7941C8.24736 19.9095 7.56383 19.9095 6.8951 19.7941C6.18182 19.6158 5.52797 19.1997 4.99301 18.7242C4.16084 17.7731 3.74476 16.5843 3.74476 15.0389V7.48993H0V15.2766C0 17.8326 0.772727 19.8536 2.25874 21.2207C3.68531 22.5284 5.52797 23.1822 7.84615 23.3011H7.96503C10.3427 23.1822 12.1259 22.5284 13.5524 21.2207C15.0385 19.8536 15.8112 17.8326 15.8112 15.2766V7.54937H12.0664V15.0389Z" fill="#9E9E9E"/>
<path d="M43.3907 12.3638C42.9143 11.8197 42.3303 11.3803 41.6755 11.0734C41.0207 10.7665 40.3094 10.5987 39.5865 10.5805C38.6355 10.6994 38.1005 10.8777 37.8033 11.2938C37.6794 11.4281 37.5882 11.5891 37.5367 11.7644C37.4851 11.9396 37.4747 12.1244 37.5061 12.3043C37.6844 13.1365 38.6949 13.3148 39.2893 13.4931L42.5585 14.3253C43.6041 14.5553 44.5565 15.0936 45.2928 15.8708C45.9683 16.6186 46.3301 17.5976 46.3033 18.605C46.3313 19.2786 46.1878 19.9482 45.8863 20.5512C45.5848 21.1542 45.1352 21.6708 44.5795 22.0526C43.3907 22.8847 41.9047 23.2414 39.9431 23.2414C38.7543 23.2414 37.5655 23.0631 36.3767 22.647C35.5445 22.2903 34.7718 21.7554 34.118 21.1015L33.8802 20.8638L33.5236 20.3882L36.139 18.5456C37.0158 19.4451 38.165 20.0301 39.4082 20.2099C40.7159 20.3288 42.1425 20.1505 42.3802 18.6645C42.3802 17.3568 41.1914 17.119 40.2998 16.9407C40.2998 16.9407 35.604 16.0491 34.4746 14.5631C33.8534 13.834 33.5158 12.9055 33.5236 11.9477C33.5236 11.3533 33.7019 10.7589 33.9397 10.1645C34.5341 9.21341 35.4851 8.44068 36.555 8.08404C37.5655 7.66795 38.6355 7.48963 39.7648 7.48963C41.7264 7.48963 44.3418 8.08404 46.0061 10.5805L43.3907 12.3638ZM64.611 0.00012207V8.85676C63.1518 7.87773 61.408 7.41274 59.6551 7.53525C57.9022 7.65775 56.2401 8.36076 54.9313 9.53324C53.6225 10.7057 52.7416 12.2808 52.4278 14.0098C52.114 15.7387 52.3851 17.5229 53.1984 19.0805C54.0319 20.6228 55.3543 21.8442 56.9578 22.5528C58.5612 23.2614 60.3547 23.4169 62.0562 22.995C63.7577 22.573 65.2707 21.5975 66.3572 20.2217C67.4438 18.846 68.0423 17.1482 68.0585 15.3952V0.00012207H64.611ZM60.2124 19.7938C59.5548 19.7966 58.9048 19.6539 58.3089 19.3759C57.713 19.098 57.1859 18.6916 56.7655 18.186C56.3451 17.6804 56.0418 17.088 55.8773 16.4514C55.7127 15.8148 55.691 15.1496 55.8138 14.5036C55.9791 13.6393 56.4 12.8444 57.0218 12.2218C57.6437 11.5992 58.438 11.1774 59.3022 11.0109C60.1663 10.8445 61.0605 10.9411 61.8691 11.2882C62.6778 11.6354 63.3637 12.2171 63.8383 12.9582C64.2776 13.6182 64.5303 14.3846 64.5698 15.1765C64.6092 15.9683 64.4339 16.7561 64.0624 17.4565C63.6909 18.1569 63.137 18.7439 62.4592 19.1553C61.7815 19.5668 61.0052 19.7874 60.2124 19.7938ZM49.1564 1.24837C48.8268 1.24365 48.4996 1.30425 48.1935 1.42668C47.8874 1.5491 47.6086 1.73093 47.3732 1.96166C47.1199 2.20807 46.9205 2.50432 46.7875 2.83171C46.6545 3.1591 46.5908 3.51052 46.6005 3.86376C46.5974 4.52829 46.8532 5.1679 47.3138 5.64698C47.8138 6.13708 48.486 6.41159 49.1862 6.41159C49.8863 6.41159 50.5585 6.13708 51.0585 5.64698C51.5409 5.1775 51.8185 4.53672 51.8313 3.86376C51.8398 3.5129 51.776 3.16403 51.6438 2.83891C51.5116 2.51378 51.3139 2.21937 51.063 1.974C50.812 1.72863 50.5133 1.53758 50.1852 1.41274C49.8572 1.2879 49.507 1.23195 49.1564 1.24837ZM47.5515 8.50012V22.5281H50.9991V8.50012H47.4921H47.5515Z" fill="#0B0A0A"/>
</svg>
