<svg width="120" height="16" viewBox="0 0 120 16" fill="none" xmlns="http://www.w3.org/2000/svg">
<g clip-path="url(#clip0_403_977)">
<path fill-rule="evenodd" clip-rule="evenodd" d="M102.344 15.2199C102.282 15.2727 102.202 15.3012 102.121 15.3012H97.7672C97.6294 15.3012 97.4952 15.2284 97.4385 15.1027C97.373 14.958 97.411 14.7893 97.5294 14.6914L105.474 8.00055C105.651 7.8511 105.652 7.57849 105.475 7.42873L97.5414 0.692579C97.4451 0.610574 97.3891 0.485191 97.411 0.360758C97.4407 0.189466 97.5876 0.0726318 97.7535 0.0726318H101.943C102.024 0.0726318 102.102 0.101128 102.166 0.153687L110.812 7.42651L110.89 7.49332C111.023 7.60667 111.026 7.81089 110.898 7.92899L110.812 8.0072L102.344 15.2199Z" fill="#9E9E9E"/>
<path fill-rule="evenodd" clip-rule="evenodd" d="M17.445 0.178979H14.7885C14.47 0.178979 14.2091 0.439876 14.2091 0.758715V9.34489C14.2091 9.54658 13.9716 9.65486 13.8193 9.5222L3.98691 0.962303C3.31662 0.379084 2.58807 0.0820923 1.81931 0.0820923C1.14079 0.0820923 0 0.359137 0 2.21201V14.6341C0 14.9542 0.259314 15.2135 0.57942 15.2135H3.2343C3.55409 15.2135 3.8134 14.9542 3.8134 14.6344V6.01244C3.8134 5.81043 4.05119 5.70246 4.20348 5.83544L14.1397 14.5248C14.7556 15.0713 15.4252 15.3484 16.1303 15.3484C16.8377 15.3484 18.0237 15.059 18.0237 13.1209V0.758082C18.0237 0.439559 17.7632 0.178979 17.445 0.178979Z" fill="#0B0A0A"/>
<path fill-rule="evenodd" clip-rule="evenodd" d="M36.8716 0.178894H33.7839C33.5952 0.178894 33.4401 0.332773 33.4401 0.522746V10.5784C33.4401 11.4067 32.4117 11.8268 30.3818 11.8268H26.1825C24.1146 11.8268 23.0647 11.4067 23.0647 10.5784V0.522746C23.0647 0.332773 22.9108 0.178894 22.7205 0.178894H19.5948C19.4042 0.178894 19.25 0.332773 19.25 0.522746V10.7329C19.25 11.4412 19.37 12.0522 19.603 12.55C19.8351 13.042 20.1511 13.4653 20.5434 13.8082C20.9275 14.1432 21.3787 14.4095 21.8815 14.5979C22.3694 14.7825 22.8836 14.9212 23.4069 15.0127C23.9278 15.1067 24.4698 15.1631 25.0182 15.184C25.5524 15.2036 26.0545 15.2134 26.525 15.2134H29.942C32.4503 15.2134 34.2354 14.8664 35.4009 14.1537C36.6054 13.4166 37.2164 12.2666 37.2164 10.7329V0.522746C37.2164 0.332773 37.0613 0.178894 36.8716 0.178894Z" fill="#0B0A0A"/>
<path fill-rule="evenodd" clip-rule="evenodd" d="M54.9266 2.83263V0.853743C54.9266 0.47063 54.6163 0.160339 54.2332 0.160339H39.1312C38.7481 0.160339 38.4375 0.470946 38.4375 0.85406V2.83263C38.4375 3.21575 38.7481 3.52667 39.1315 3.52667H44.4144C44.6075 3.52667 44.7643 3.68308 44.7643 3.87622V14.5198C44.7643 14.9029 45.0749 15.2135 45.458 15.2135H47.8849C48.2683 15.2135 48.5792 14.9026 48.5792 14.5195V3.87622C48.5792 3.68308 48.7357 3.52667 48.9288 3.52667H54.2325C54.616 3.52667 54.9266 3.21606 54.9266 2.83263Z" fill="#0B0A0A"/>
<path fill-rule="evenodd" clip-rule="evenodd" d="M58.885 7.65911L60.8196 4.87853C60.9079 4.75093 61.0963 4.7503 61.1859 4.87695L63.1436 7.6379C63.2348 7.76613 63.143 7.94376 62.9856 7.94376H59.0338C58.8876 7.94376 58.8014 7.77911 58.885 7.65911ZM63.142 1.19621C62.6218 0.469879 61.9332 0.101013 61.0951 0.101013C60.2684 0.101013 59.5863 0.476844 59.0649 1.22027L49.7492 14.672C49.6602 14.7999 49.6666 14.974 49.7742 15.0969C49.8442 15.1764 49.9509 15.2134 50.0566 15.2134H53.7187C53.8352 15.2134 53.9448 15.1539 54.0081 15.0561L56.3476 11.4567C56.3989 11.3778 56.4863 11.3304 56.5803 11.3304C56.5803 11.3304 64.3803 11.3285 65.561 11.33C65.6547 11.33 65.7412 11.3769 65.7928 11.4551L68.1852 15.0589C68.2485 15.1555 68.3565 15.2134 68.472 15.2134H71.9866C72.1129 15.2134 72.2304 15.1431 72.2896 15.0295C72.3497 14.9171 72.3424 14.7812 72.2712 14.6758L63.142 1.19621Z" fill="#0B0A0A"/>
<path fill-rule="evenodd" clip-rule="evenodd" d="M90.6223 0.178979H87.8927C87.5935 0.178979 87.3506 0.421828 87.3506 0.721354V9.42563C87.3506 9.59597 87.1502 9.68716 87.0217 9.57539L77.1288 0.962303C76.4588 0.379084 75.729 0.0820923 74.9593 0.0820923C74.2808 0.0820923 73.1406 0.359137 73.1406 2.21201V14.6708C73.1406 14.9694 73.3847 15.2135 73.6833 15.2135H76.412C76.7118 15.2135 76.955 14.9703 76.955 14.6705V5.93138C76.955 5.76072 77.1557 5.66985 77.2843 5.78193L87.2813 14.5248C87.8965 15.0713 88.5668 15.3484 89.2719 15.3484C89.9786 15.3484 91.1653 15.059 91.1653 13.1209V0.721987C91.1653 0.422145 90.9222 0.178979 90.6223 0.178979Z" fill="#0B0A0A"/>
<path fill-rule="evenodd" clip-rule="evenodd" d="M95.8514 0.178894H92.727C92.5367 0.178894 92.3828 0.332773 92.3828 0.522746V14.8692C92.3828 15.0589 92.5367 15.2134 92.727 15.2134H95.8514C96.0414 15.2134 96.1962 15.0589 96.1962 14.8692V0.522746C96.1962 0.332773 96.0414 0.178894 95.8514 0.178894Z" fill="#0B0A0A"/>
<path fill-rule="evenodd" clip-rule="evenodd" d="M112.144 6.45543C112.283 6.57353 112.487 6.57353 112.626 6.45575L119.561 0.692579C119.657 0.610574 119.713 0.485191 119.691 0.360759C119.661 0.189466 119.514 0.0726318 119.349 0.0726318H115.159C115.079 0.0726318 115 0.101128 114.936 0.153687L110.07 4.12065C109.894 4.26883 109.893 4.53954 110.068 4.68867L112.144 6.45543Z" fill="#0B0A0A"/>
<path fill-rule="evenodd" clip-rule="evenodd" d="M112.12 8.97496C112.259 8.85686 112.463 8.85655 112.602 8.97465L119.64 14.7226C119.736 14.8043 119.792 14.93 119.77 15.0544C119.74 15.2254 119.593 15.3426 119.428 15.3426H115.238C115.158 15.3426 115.079 15.3141 115.015 15.2615L110.179 11.235C110.003 11.0868 110.003 10.8161 110.178 10.667L112.12 8.97496Z" fill="#0B0A0A"/>
</g>
<defs>
<clipPath id="clip0_403_977">
<rect width="120" height="15.5145" fill="white"/>
</clipPath>
</defs>
</svg>
