<svg width="73" height="41" viewBox="0 0 73 41" fill="none" xmlns="http://www.w3.org/2000/svg">
<path d="M0.242188 39.8387H1.87049V36.6057C1.87049 36.0299 1.87049 35.3196 2.1654 34.9035C2.45884 34.4512 2.98584 34.3041 3.28001 34.3041C4.65184 34.3041 4.65184 35.9213 4.65184 36.483V39.8387H6.2794V36.1652C6.2794 35.6375 6.2794 34.4999 5.65557 33.7534C5.0931 33.0668 4.19801 32.8081 3.61114 32.8081C2.58153 32.8081 2.01832 33.3735 1.74927 33.6307V33.0409H0.242188V39.8387Z" fill="#0B0A0A"/>
<path fill-rule="evenodd" clip-rule="evenodd" d="M13.6811 37.1693C13.7277 36.9498 13.7787 36.6675 13.7787 36.3496C13.7787 34.6363 12.4187 32.7715 10.2634 32.7715C8.16872 32.7715 6.6875 34.5373 6.6875 36.459C6.6875 38.4421 8.25519 40.0601 10.276 40.0601C11.8681 40.0601 13.1652 38.9225 13.5577 37.6971H11.8422C11.5369 38.2603 10.9988 38.5655 10.276 38.5655C9.11259 38.5655 8.47545 37.6106 8.40154 37.1693H13.6811ZM8.35276 35.8588C8.65876 34.5971 9.6758 34.2668 10.276 34.2668C11.0846 34.2668 11.9287 34.7686 12.1127 35.8588H8.35276" fill="#0B0A0A"/>
<path d="M15.8721 39.8387H16.8744L18.1612 35.4305H18.1848L19.4598 39.8387H20.4636L22.9493 33.0409H21.2108L19.9602 37.1933H19.9366L18.833 33.0409H17.5366L16.422 37.1933H16.3976L15.161 33.0409H13.4219L15.8721 39.8387Z" fill="#0B0A0A"/>
<path fill-rule="evenodd" clip-rule="evenodd" d="M26.1016 39.8388H27.5946V39.0184C27.9974 39.4722 28.5754 40.0598 29.8859 40.0598C32.3709 40.0598 33.2652 37.77 33.2652 36.4093C33.2652 34.6109 31.9185 32.8082 29.849 32.8082C29.0891 32.8082 28.2923 33.0913 27.7291 33.6553V30.7763H26.1016V39.8388ZM27.6308 36.3494C27.6308 35.3575 28.4025 34.3042 29.6516 34.3042C30.6812 34.3042 31.6369 35.0988 31.6369 36.4233C31.6369 37.7441 30.7426 38.566 29.6767 38.566C28.7218 38.566 27.6308 37.8557 27.6308 36.3494Z" fill="#0B0A0A"/>
<path fill-rule="evenodd" clip-rule="evenodd" d="M40.8652 33.0413H39.3699V33.9009H39.3455C39.296 33.8018 38.4748 32.8077 37.0927 32.8077C35.2072 32.8077 33.6875 34.3148 33.6875 36.3984C33.6875 38.6631 35.2434 40.0601 36.9951 40.0601C37.851 40.0601 38.8562 39.6055 39.3699 38.9965V39.8391H40.8652V33.0413ZM39.3226 36.4235C39.3226 37.6845 38.4638 38.5655 37.3366 38.5655C36.1739 38.5655 35.3158 37.6224 35.3158 36.4716C35.3158 35.4553 36.0017 34.3045 37.3366 34.3045C38.3048 34.3045 39.3226 35.014 39.3226 36.4235" fill="#0B0A0A"/>
<path d="M43.3627 30.7765H41.7344V39.8389H43.3627V30.7765Z" fill="#0B0A0A"/>
<path fill-rule="evenodd" clip-rule="evenodd" d="M51.0285 33.0413H49.5347V33.9009H49.5096C49.4601 33.8018 48.6389 32.8077 47.2567 32.8077C45.369 32.8077 43.8516 34.3148 43.8516 36.3984C43.8516 38.6631 45.4074 40.0601 47.1584 40.0601C48.0151 40.0601 49.0188 39.6055 49.5347 38.9965V39.8391H51.0285V33.0413ZM49.4852 36.4235C49.4852 37.6845 48.6286 38.5655 47.5014 38.5655C46.3373 38.5655 45.4806 37.6224 45.4806 36.4716C45.4806 35.4553 46.1665 34.3045 47.5014 34.3045C48.4689 34.3045 49.4852 35.014 49.4852 36.4235" fill="#0B0A0A"/>
<path d="M51.8984 39.8387H53.526V36.6057C53.526 36.0299 53.526 35.3196 53.8209 34.9035C54.1143 34.4512 54.6428 34.3041 54.9355 34.3041C56.3066 34.3041 56.3066 35.9213 56.3066 36.483V39.8387H57.9364V36.1652C57.9364 35.6375 57.9364 34.4999 57.3103 33.7534C56.7471 33.0668 55.8543 32.8081 55.2659 32.8081C54.2363 32.8081 53.6746 33.3735 53.404 33.6307V33.0409H51.8984V39.8387Z" fill="#0B0A0A"/>
<path d="M63.7189 37.6227C63.2895 38.3086 62.7521 38.5658 62.2133 38.5658C60.9871 38.5658 60.1674 37.5983 60.1674 36.4349C60.1674 35.0387 61.1475 34.304 62.1386 34.304C63.1431 34.304 63.5238 34.9529 63.7189 35.2951H65.5571C64.8586 33.2004 62.9953 32.808 62.1386 32.808C60.2649 32.808 58.5391 34.3291 58.5391 36.409C58.5391 38.6634 60.4105 40.0596 62.1519 40.0596C63.744 40.0596 65.0042 39.1408 65.5571 37.6227H63.7189Z" fill="#0B0A0A"/>
<path fill-rule="evenodd" clip-rule="evenodd" d="M72.8061 37.1693C72.8542 36.9498 72.903 36.6675 72.903 36.3496C72.903 34.6363 71.5445 32.7715 69.3891 32.7715C67.2945 32.7715 65.8125 34.5373 65.8125 36.459C65.8125 38.4421 67.3802 40.0601 69.401 40.0601C70.9923 40.0601 72.2917 38.9225 72.6827 37.6971H70.9687C70.6619 38.2603 70.1246 38.5655 69.401 38.5655C68.2368 38.5655 67.6005 37.6106 67.5288 37.1693H72.8061ZM67.4785 35.8588C67.7852 34.5971 68.8008 34.2668 69.401 34.2668C70.2103 34.2668 71.0544 34.7686 71.2377 35.8588H67.4785" fill="#0B0A0A"/>
<path fill-rule="evenodd" clip-rule="evenodd" d="M27.9638 17.3076L25.787 21.0668L13.7385 20.3891L14.9447 18.2951L27.9638 17.3076ZM36.6737 5.32929L37.7654 9.47803L20.6693 8.35455L21.8748 6.26133L36.6737 5.32929ZM25.3399 0.244078L35.3469 0.251468L36.1023 3.08825L24.1358 2.33729L25.3399 0.244078V0.244078ZM24.4603 23.4047L22.7226 26.3923L10.2734 26.4056L11.479 24.3131L24.4603 23.4047ZM46.3171 15.3445L43.3037 20.5679H46.1737C47.5034 20.5679 49.8864 19.9042 50.6196 18.0105C51.2988 16.2507 50.0504 15.3423 49.179 15.3423L46.3171 15.3445V15.3445ZM49.1908 10.348L51.6943 10.3325C53.3603 10.3236 55.098 9.56155 55.7336 8.01529C56.3197 6.58064 55.5318 5.35886 54.4874 5.36329L52.0661 5.36033L49.1908 10.348V10.348ZM37.8592 9.47803L40.3871 5.09277L48.9425 4.5436L49.2411 4.01142L41.3272 3.45781L43.178 0.244078L57.8542 0.243339C62.3673 0.243339 65.706 1.85686 64.408 6.60207C64.0178 8.03968 62.1833 11.6585 56.8031 13.1744C57.9451 13.3104 60.7893 14.5706 60.2992 17.8376C59.4285 23.6309 51.9278 26.3886 47.7554 26.3901L30.4288 26.3982L29.5751 23.0462L38.6501 22.4061L38.9583 21.8755L29.1153 21.276L28.0547 17.3025L42.0605 16.485L42.365 15.9587L17.2028 14.3711L18.4083 12.2786L45.493 10.5202L45.7997 9.9932L37.8592 9.47803" fill="#0B0A0A"/>
</svg>
