<svg width="115" height="35" viewBox="0 0 115 35" fill="none" xmlns="http://www.w3.org/2000/svg">
<path d="M112.285 15.612C112.43 15.2828 112.556 14.9803 112.693 14.6827C112.752 14.5543 112.961 14.4913 113.087 14.5441C113.159 14.5741 113.137 14.6329 113.137 14.6827C113.137 15.2613 113.137 15.8398 113.14 16.4166C113.14 16.5252 113.106 16.5612 112.995 16.5612C112.885 16.5612 112.851 16.5226 112.851 16.4149C112.855 16.0053 112.853 15.5959 112.851 15.1854C112.851 15.1223 112.865 15.0558 112.824 14.9738C112.696 15.2846 112.531 15.561 112.433 15.8673C112.409 15.9398 112.388 15.9991 112.295 16.0068C112.203 16.0154 112.158 15.9725 112.123 15.8892C112.022 15.6467 111.913 15.4072 111.803 15.1678C111.782 15.1215 111.773 15.0635 111.703 15.0364C111.665 15.109 111.683 15.1875 111.683 15.2614C111.68 15.6404 111.679 16.0207 111.683 16.399C111.683 16.5102 111.659 16.5608 111.534 16.5604C111.408 16.56 111.404 16.4917 111.404 16.399C111.406 15.8451 111.404 15.291 111.407 14.7374C111.407 14.6649 111.359 14.5417 111.493 14.5417C111.612 14.5417 111.761 14.4661 111.838 14.6438C111.964 14.9332 112.099 15.2199 112.23 15.507C112.245 15.537 112.259 15.5611 112.285 15.6113L112.285 15.612Z" fill="#0B0A0A"/>
<path d="M110.21 15.6843C110.21 15.4619 110.199 15.2388 110.214 15.0175C110.227 14.8368 110.158 14.7823 109.989 14.8025C109.894 14.8154 109.797 14.7999 109.7 14.8057C109.598 14.81 109.548 14.7885 109.547 14.6692C109.547 14.543 109.611 14.5374 109.705 14.5379C110.144 14.5404 110.583 14.5411 111.022 14.5379C111.127 14.5379 111.174 14.5679 111.173 14.6825C111.172 14.7984 111.114 14.8104 111.023 14.8078C110.909 14.8042 110.794 14.8164 110.681 14.805C110.541 14.7921 110.494 14.8393 110.496 14.984C110.505 15.4468 110.496 15.91 110.501 16.3729C110.501 16.4849 110.503 16.5665 110.346 16.5635C110.188 16.5606 110.209 16.4681 110.209 16.3724C110.21 16.1423 110.211 15.9131 110.21 15.6843L110.21 15.6843Z" fill="#0B0A0A"/>
<path d="M84.4897 20.0637C84.7985 19.7946 85.0788 19.5502 85.3959 19.3543C86.3064 18.7913 87.3004 18.6177 88.3552 18.7091C88.8509 18.7478 89.3267 18.8667 89.7824 19.0654C90.4333 19.3548 90.9171 19.8248 91.3124 20.4034C91.3782 20.4991 91.4118 20.5179 91.4856 20.4076C92.1607 19.3984 93.1265 18.8455 94.3129 18.7002C95.4881 18.5555 96.5816 18.786 97.4881 19.6042C97.9452 20.0175 98.2008 20.5497 98.3089 21.155C98.3779 21.559 98.4113 21.9657 98.4091 22.3755C98.4138 24.4481 98.4091 26.5211 98.4156 28.5949C98.4156 28.7718 98.3664 28.8117 98.1947 28.8117C97.1041 28.8032 96.0134 28.8032 94.9226 28.8117C94.7642 28.8117 94.7208 28.7731 94.7215 28.6126C94.7278 26.9796 94.7285 25.3466 94.7237 23.7137C94.7276 23.3213 94.6866 22.9334 94.6007 22.5503C94.2854 21.2124 92.7671 21.2042 92.0902 21.8373C91.674 22.2267 91.5358 22.7235 91.4755 23.2602C91.4234 23.7165 91.4436 24.1743 91.4429 24.6317C91.4408 25.9636 91.4413 27.2952 91.4447 28.6266C91.4447 28.7644 91.4143 28.8126 91.2665 28.8113C90.1576 28.807 89.0487 28.807 87.9398 28.8113C87.7846 28.8113 87.7521 28.7632 87.7525 28.6172C87.7575 26.9661 87.7553 25.3151 87.7557 23.6634C87.7557 23.326 87.7441 22.9897 87.679 22.6574C87.5583 22.0387 87.1884 21.6525 86.5809 21.5003C85.8645 21.3221 85.1569 21.5917 84.7808 22.1804C84.5548 22.5337 84.506 22.9398 84.5031 23.3419C84.4903 25.0896 84.4878 26.8373 84.4955 28.5851C84.4955 28.7722 84.4449 28.8125 84.2655 28.8108C83.175 28.8022 82.0843 28.8022 80.9934 28.8108C80.8409 28.8108 80.8043 28.7679 80.8047 28.6194C80.8085 25.4195 80.8085 22.2197 80.8047 19.02C80.8047 18.8629 80.8549 18.8333 80.9992 18.8342C82.1021 18.8385 83.2049 18.8385 84.3075 18.8342C84.4633 18.8342 84.4988 18.8831 84.4944 19.0286C84.4836 19.3583 84.4897 19.69 84.4897 20.0635L84.4897 20.0637Z" fill="#0B0A0A"/>
<path d="M73.4013 27.7977C73.1746 28.0179 72.9558 28.2316 72.7088 28.4098C72.1465 28.8181 71.5101 29.0246 70.8235 29.1027C69.7604 29.2233 68.7472 29.0533 67.8103 28.5422C66.3212 27.7304 65.3543 26.51 65.0881 24.8109C64.8712 23.4184 65.031 22.0707 65.8345 20.8727C66.6976 19.5894 67.8985 18.804 69.4458 18.5769C70.5841 18.4091 71.6559 18.5898 72.6474 19.1877C72.911 19.346 73.1341 19.5585 73.376 19.7663C73.4208 19.6937 73.4016 19.6216 73.4016 19.5555C73.4016 17.3324 73.4006 15.1092 73.3984 12.8858C73.3984 12.7026 73.4468 12.6523 73.6305 12.6536C74.7331 12.6622 75.8363 12.6622 76.9381 12.6536C77.0769 12.6536 77.1225 12.6879 77.1225 12.8343C77.1186 18.1003 77.1186 23.3663 77.1225 28.6321C77.1225 28.7678 77.0961 28.8176 76.9464 28.8167C75.8259 28.8081 74.705 28.8081 73.5835 28.8167C73.4389 28.8167 73.3955 28.7713 73.3998 28.6309C73.4074 28.3527 73.4013 28.0758 73.4013 27.7974L73.4013 27.7977ZM71.1861 26.062C71.3185 26.062 71.4526 26.0749 71.5839 26.0598C72.929 25.8958 73.837 24.5049 73.4389 23.1985C72.9735 21.6736 71.1673 21.1302 69.9169 21.9369C69.0064 22.5245 68.7522 23.3594 68.8903 24.2117C69.0599 25.2618 70.0449 26.1344 71.1861 26.062Z" fill="#0B0A0A"/>
<path d="M20.8301 18.4659C22.1554 18.4638 23.2593 18.6419 24.2733 19.1891C25.6835 19.9527 26.679 21.0694 27.0348 22.6659C27.5772 25.1019 26.4023 27.4531 24.1373 28.5259C23.3331 28.9067 22.4808 29.085 21.596 29.1461C20.6522 29.2113 19.7193 29.1589 18.8048 28.9168C17.1302 28.4735 15.8455 27.5192 15.1353 25.9156C14.3467 24.1358 14.5455 21.9615 16.0172 20.3832C16.9379 19.396 18.0697 18.8384 19.3823 18.6055C19.9229 18.5124 20.466 18.4622 20.8301 18.466L20.8301 18.4659ZM20.9303 21.5033C20.7493 21.4996 20.5697 21.5119 20.3915 21.5462C19.0388 21.8111 18.0096 23.3661 18.7506 24.8281C19.2503 25.8142 20.2892 26.3045 21.4383 26.0984C22.7375 25.8649 23.575 24.5754 23.2883 23.2903C23.085 22.3794 22.1178 21.4581 20.9303 21.5029V21.5036V21.5033Z" fill="#0B0A0A"/>
<path d="M55.6846 20.0706C55.9388 19.7671 56.2264 19.4991 56.5474 19.2671C57.08 18.8881 57.685 18.711 58.3293 18.6459C59.1523 18.563 59.9638 18.5944 60.7427 18.8992C61.9265 19.3645 62.6193 20.2342 62.845 21.4839C62.9065 21.8234 62.9173 22.164 62.9173 22.5071C62.9159 24.5437 62.9169 26.5801 62.9206 28.6164C62.9206 28.7773 62.8782 28.8155 62.7202 28.8146C61.6239 28.8061 60.527 28.8061 59.4297 28.8146C59.2467 28.8146 59.2167 28.7584 59.2171 28.5914C59.2233 26.9165 59.2233 25.2418 59.2171 23.5671C59.218 23.2177 59.1829 22.8718 59.1118 22.5296C58.9849 21.9435 58.6143 21.5801 58.0466 21.4543C57.2977 21.2877 56.6244 21.4513 56.0983 22.0473C55.8452 22.334 55.7602 22.6891 55.7146 23.0597C55.6618 23.4856 55.6853 23.9135 55.6846 24.3402C55.6815 25.7683 55.6822 27.1962 55.6868 28.624C55.6868 28.7729 55.6506 28.8155 55.4977 28.815C54.3888 28.8065 53.2799 28.8065 52.171 28.815C52.0162 28.815 51.984 28.7682 51.9844 28.6218C51.9882 25.4226 51.9882 22.2235 51.9844 19.0243C51.9844 18.8621 52.0289 18.826 52.1854 18.8273C53.2878 18.8359 54.3903 18.8359 55.493 18.8273C55.6376 18.8273 55.6922 18.8573 55.6868 19.0136C55.6756 19.351 55.6846 19.6876 55.6846 20.0709L55.6846 20.0706Z" fill="#0B0A0A"/>
<path d="M49.5998 22.2883C49.5998 23.337 49.6222 24.3856 49.594 25.4342C49.5579 26.7891 48.9554 27.8261 47.7535 28.4889C47.027 28.8894 46.2398 29.0809 45.4215 29.1793C44.7865 29.2518 44.1499 29.272 43.5116 29.2398C42.3436 29.1879 41.2046 28.9956 40.1921 28.355C39.2262 27.7444 38.6838 26.8683 38.5649 25.7265C38.5411 25.4565 38.5313 25.1864 38.5356 24.9155C38.5356 22.9571 38.5356 20.9983 38.5312 19.0399C38.5312 18.8806 38.5642 18.8266 38.7359 18.8279C39.8388 18.8364 40.9417 18.8364 42.0445 18.8279C42.2076 18.8279 42.2572 18.8622 42.2564 19.0356C42.2499 20.8736 42.2535 22.7116 42.2514 24.5495C42.2514 24.8474 42.2832 25.1372 42.4029 25.4124C42.6159 25.9023 43.0158 26.1634 43.5155 26.2686C43.9668 26.3635 44.4253 26.3575 44.8679 26.2021C45.4739 25.9887 45.7921 25.5458 45.8753 24.9174C45.9114 24.6418 45.9096 24.3655 45.9096 24.0889C45.9096 22.4013 45.9118 20.7141 45.9057 19.0265C45.9057 18.8668 45.9458 18.8265 46.1049 18.8278C47.2078 18.8364 48.3107 18.8364 49.4135 18.8278C49.5611 18.8278 49.6066 18.8621 49.6055 19.0154C49.5987 20.106 49.6019 21.1969 49.6019 22.2879L49.5998 22.2886L49.5998 22.2883Z" fill="#0B0A0A"/>
<path d="M108.125 24.4807H104.491C104.282 24.4807 104.264 24.5021 104.292 24.7107C104.319 24.9129 104.332 25.1168 104.386 25.3157C104.555 25.9441 104.932 26.3792 105.562 26.5733C106.108 26.742 106.659 26.7755 107.214 26.6076C107.616 26.4883 107.933 26.2462 108.18 25.9152C108.252 25.8199 108.323 25.7735 108.447 25.774C109.508 25.7783 110.568 25.7783 111.629 25.774C111.804 25.774 111.813 25.8259 111.764 25.9718C111.205 27.6265 110.021 28.5753 108.362 28.9905C107.823 29.1244 107.274 29.1733 106.718 29.1828C105.755 29.1999 104.806 29.1141 103.901 28.7707C102.126 28.0967 101.001 26.8444 100.663 24.9587C100.405 23.521 100.593 22.1383 101.389 20.8828C101.998 19.9217 102.854 19.2556 103.934 18.9085C105.396 18.4384 106.884 18.4022 108.359 18.8218C110.185 19.3388 111.265 20.6004 111.761 22.398C111.938 23.0362 111.963 23.6907 111.954 24.3488C111.954 24.4934 111.869 24.4789 111.777 24.4789L108.125 24.4793L108.125 24.4807ZM106.449 22.4839C107.087 22.4839 107.726 22.4839 108.365 22.4839C108.441 22.4839 108.539 22.5054 108.503 22.3711C108.369 21.8713 108.147 21.4269 107.709 21.1177C107.272 20.8086 106.777 20.7606 106.263 20.7808C105.323 20.8151 104.613 21.4164 104.412 22.3356C104.383 22.4683 104.418 22.4858 104.536 22.4854C105.172 22.4822 105.811 22.484 106.449 22.484L106.449 22.4839Z" fill="#0B0A0A"/>
<path d="M30.7592 25.2728C30.7592 24.1645 30.7563 23.0558 30.7625 21.946C30.7625 21.7975 30.7263 21.749 30.5741 21.7546C30.2486 21.7675 29.9232 21.7546 29.5978 21.7589C29.4875 21.7611 29.4531 21.7245 29.4531 21.6142C29.4567 20.7348 29.4567 19.8549 29.4531 18.9746C29.4531 18.8505 29.4969 18.8235 29.6101 18.8256C29.9293 18.8342 30.2494 18.817 30.5679 18.8342C30.7354 18.8428 30.7664 18.7836 30.7632 18.6308C30.7531 18.191 30.7484 17.751 30.7632 17.3116C30.7917 16.3946 30.9462 15.5007 31.4636 14.7233C32.1525 13.6888 33.1205 13.0321 34.3351 12.7573C35.1863 12.5646 36.0248 12.6032 36.8446 12.9303C36.999 12.9917 37.0481 13.0685 37.0463 13.2338C37.0373 14.107 37.0424 14.981 37.0424 15.8546C37.0424 16.1057 37.0424 16.1079 36.8254 15.9993C36.4385 15.804 36.036 15.6868 35.596 15.7117C34.9881 15.746 34.5752 16.1554 34.5188 16.7604C34.4595 17.3975 34.4891 18.0354 34.4739 18.6725C34.4707 18.8021 34.5148 18.8343 34.6384 18.8334C35.3797 18.8291 36.121 18.8335 36.8616 18.8292C37 18.8292 37.0481 18.8592 37.0471 19.0099C37.0403 19.8592 37.0403 20.7087 37.0471 21.5584C37.0471 21.713 37.0109 21.7675 36.8464 21.7653C36.1355 21.7567 35.4246 21.761 34.7129 21.7621C34.4475 21.7621 34.4768 21.732 34.4768 22.0084C34.4768 24.1959 34.4768 26.383 34.4768 28.5696C34.4768 28.8147 34.4768 28.8147 34.232 28.8147C33.1356 28.8147 32.0389 28.8122 30.9415 28.818C30.8001 28.818 30.7581 28.7837 30.7607 28.6373C30.7617 27.5167 30.7592 26.3961 30.7592 25.2751L30.7592 25.2728Z" fill="#0B0A0A"/>
<path d="M113.967 3.44115C113.261 2.59175 111.596 2.38238 110.566 2.86653C110.349 2.96869 110.123 3.05113 109.928 3.19193L103.748 7.67576C103.307 8.05994 102.909 8.49619 102.846 9.06315C102.789 9.58027 102.846 10.008 103.299 10.4698C104.322 11.5119 106.129 11.5184 106.99 10.9934C107.781 10.5128 113.008 6.65022 113.86 6.02068L114.082 5.79916C114.334 5.45104 114.772 4.40995 113.967 3.44122L113.967 3.44115Z" fill="#0B0A0A"/>
<path d="M87.965 10.3111C88.4181 9.84934 88.4745 9.42151 88.4174 8.90444C88.3548 8.33748 87.9563 7.90105 87.5163 7.51705L81.3358 3.03322C81.1409 2.89199 80.9149 2.80955 80.6976 2.70782C79.6674 2.22367 78.003 2.43312 77.2986 3.28244C76.4933 4.25117 76.9312 5.29179 77.1858 5.63927L77.4071 5.86079C78.2561 6.4914 83.4826 10.354 84.2745 10.8345C85.1351 11.3585 86.9417 11.3531 87.965 10.3109L87.965 10.3111Z" fill="#0B0A0A"/>
<path d="M95.6711 9.13927C96.9905 9.13927 98.0963 8.53869 98.4105 7.42354C98.4516 7.26944 98.4719 7.11275 98.4716 6.95345L98.5013 2.93316C98.5013 2.89882 98.5038 2.86535 98.5038 2.83144C98.5038 1.28596 97.2581 0.56781 95.6939 0.56781C94.139 0.56781 92.8752 1.40202 92.8625 2.93303L92.8596 6.98581C92.8571 7.1442 92.8726 7.30089 92.9063 7.45589C93.175 8.61556 94.31 9.13914 95.6711 9.13914L95.6711 9.13927Z" fill="#0B0A0A"/>
<path d="M103.827 12.1626C101.73 11.119 98.958 10.463 95.3384 10.463C89.2737 10.463 85.2068 12.377 83.1406 15.1588H83.1717L83.1631 15.1716L107.571 15.1695C106.681 14.0167 105.458 12.9738 103.827 12.1642L103.827 12.1626Z" fill="#0B0A0A"/>
<path d="M8.91059 27.6767C8.72979 27.8261 8.5826 27.9531 8.43003 28.0746C7.7683 28.6065 7.0122 28.8915 6.16606 28.9663C4.96013 29.0749 3.82652 28.8641 2.79488 28.216C1.55062 27.4364 0.854542 26.2894 0.640475 24.8481C0.459675 23.6411 0.578619 22.4615 1.15214 21.3723C1.97369 19.8138 3.26062 18.8704 5.02124 18.6108C5.94404 18.4743 6.84369 18.5533 7.70321 18.9422C8.08761 19.116 8.4105 19.3762 8.70376 19.6734C8.76055 19.7314 8.80897 19.7975 8.86142 19.8602L8.91602 19.8258C8.91602 19.5575 8.92203 19.2889 8.91313 19.0209C8.90884 18.8853 8.9406 18.8325 9.09067 18.8333C10.1996 18.8419 11.3085 18.8419 12.4174 18.8333C12.5414 18.8333 12.5822 18.8633 12.5822 18.9943C12.578 22.2602 12.5874 25.5262 12.5694 28.7936C12.5651 29.5501 12.4768 30.3076 12.1195 31.0012C11.5909 32.0285 10.7654 32.7405 9.73299 33.2239C8.92771 33.6017 8.06964 33.7598 7.18481 33.8151C6.08627 33.8838 5.00582 33.8022 3.96658 33.4369C2.64747 32.9755 1.61185 32.1652 0.950487 30.9141C0.82901 30.684 0.762477 30.4346 0.712212 30.1793C0.686028 30.0475 0.70706 30.0059 0.854336 30.0068C1.77605 30.0154 2.69849 30.0104 3.61984 30.0104C3.96938 30.0104 4.31893 30.0104 4.66848 30.0104C4.74334 30.0104 4.80553 30.0104 4.83949 30.1022C5.06115 30.696 5.5352 30.9635 6.12497 31.0381C6.70606 31.1102 7.27991 31.0639 7.80857 30.7715C8.48114 30.399 8.81418 29.8111 8.88361 29.0597C8.92524 28.6117 8.91623 28.163 8.91065 27.6766L8.91059 27.6767ZM6.72509 26.0983C7.98273 26.1326 9.09067 25.1032 9.09139 23.7899C9.09139 22.5167 8.09664 21.4481 6.73449 21.4478C5.29135 21.4478 4.39314 22.6461 4.38663 23.779C4.37933 24.9799 5.419 26.1189 6.72509 26.0983Z" fill="#0B0A0A"/>
</svg>
