<svg width="61" height="25" viewBox="0 0 61 25" fill="none" xmlns="http://www.w3.org/2000/svg">
<path d="M5.06167 0.802246H0.726562V5.13735H5.06167V0.802246Z" fill="#9E9E9E"/>
<path d="M4.94744 23.388V7.77544H0.84375V23.388H4.94744ZM32.2231 23.5423V19.7163C31.6214 19.7163 31.1123 19.6854 30.7421 19.6237C30.3101 19.562 29.9861 19.4077 29.7702 19.1917C29.5542 18.9757 29.4153 18.6672 29.3382 18.2661C29.2765 17.8804 29.2456 17.3713 29.2456 16.7542V11.2929H32.2231V7.77544H29.2456V1.68161H25.1265V16.785C25.1265 18.0655 25.2345 19.1454 25.4505 20.0094C25.6665 20.8579 26.0367 21.5521 26.5458 22.0767C27.0549 22.6012 27.7337 22.9714 28.5514 23.2029C29.3845 23.4343 30.4335 23.5423 31.6832 23.5423H32.2231ZM55.7962 23.388V0.478271H51.6771V23.388H55.7962ZM21.1617 9.30275C20.02 8.06856 18.4156 7.45146 16.3792 7.45146C15.3918 7.45146 14.497 7.65202 13.6794 8.05313C12.8771 8.45425 12.1829 9.00963 11.6429 9.71929L11.4115 10.0124V9.75015V7.77544H7.35412V23.388H11.4424V15.0726V15.6434C11.4424 15.5509 11.4424 15.4583 11.4424 15.3657C11.4887 13.9001 11.8435 12.8202 12.5223 12.126C13.2474 11.3855 14.1268 11.0152 15.1295 11.0152C16.3174 11.0152 17.2277 11.3855 17.8293 12.0951C18.4156 12.8048 18.7241 13.8076 18.7241 15.088V15.1189V23.3726H22.8741V14.5172C22.8895 12.2957 22.3033 10.5369 21.1617 9.30275ZM49.5481 15.5509C49.5481 14.4247 49.3475 13.3756 48.9619 12.3882C48.5607 11.4163 48.0054 10.5524 47.3111 9.81186C46.6015 9.07134 45.753 8.50053 44.7656 8.08399C43.7783 7.66745 42.6829 7.46689 41.495 7.46689C40.3688 7.46689 39.3043 7.68287 38.3169 8.09941C37.3296 8.53138 36.4657 9.1022 35.7406 9.82729C35.0155 10.5524 34.4292 11.4163 34.0127 12.4037C33.5807 13.391 33.3802 14.4555 33.3802 15.5817C33.3802 16.7079 33.5807 17.7724 33.9818 18.7598C34.383 19.7471 34.9538 20.611 35.6634 21.3361C36.3731 22.0612 37.2525 22.6475 38.2707 23.064C39.2889 23.496 40.4151 23.712 41.6184 23.712C45.105 23.712 47.2648 22.1229 48.5607 20.6419L45.5987 18.3895C44.9816 19.13 43.5006 20.1328 41.6493 20.1328C40.4922 20.1328 39.5357 19.8705 38.8106 19.3306C38.0855 18.806 37.5919 18.0655 37.3296 17.1553L37.2833 17.0165H49.5481V15.5509ZM37.3142 14.1161C37.3142 12.9745 38.6255 10.9843 41.4487 10.9689C44.2719 10.9689 45.5987 12.9591 45.5987 14.1007L37.3142 14.1161Z" fill="#0B0A0A"/>
<path d="M60.4863 21.3515C60.4092 21.1664 60.3012 21.0121 60.1623 20.8733C60.0235 20.7345 59.8692 20.6265 59.6841 20.5493C59.4989 20.4722 59.2984 20.4259 59.0978 20.4259C58.8818 20.4259 58.6967 20.4722 58.5116 20.5493C58.3265 20.6265 58.1722 20.7345 58.0333 20.8733C57.8945 21.0121 57.7865 21.1664 57.7094 21.3515C57.6322 21.5367 57.5859 21.7372 57.5859 21.9378C57.5859 22.1538 57.6322 22.3389 57.7094 22.524C57.7865 22.7092 57.8945 22.8634 58.0333 23.0023C58.1722 23.1411 58.3265 23.2491 58.5116 23.3263C58.6967 23.4034 58.8973 23.4497 59.0978 23.4497C59.3138 23.4497 59.4989 23.4034 59.6841 23.3263C59.8692 23.2491 60.0235 23.1411 60.1623 23.0023C60.3012 22.8634 60.4092 22.7092 60.4863 22.524C60.5634 22.3389 60.6097 22.1383 60.6097 21.9378C60.6097 21.7372 60.5634 21.5367 60.4863 21.3515ZM60.2395 22.4315C60.1777 22.5857 60.0852 22.7246 59.9772 22.8326C59.8692 22.9406 59.7304 23.0331 59.5761 23.0948C59.4218 23.1566 59.2675 23.1874 59.0824 23.1874C58.9127 23.1874 58.743 23.1566 58.5887 23.0948C58.4344 23.0331 58.2956 22.9406 58.1876 22.8326C58.0796 22.7246 57.9871 22.5857 57.9253 22.4315C57.8636 22.2772 57.8328 22.1229 57.8328 21.9378C57.8328 21.7681 57.8636 21.5984 57.9253 21.4441C57.9871 21.2898 58.0796 21.151 58.1876 21.043C58.2956 20.935 58.4344 20.8424 58.5887 20.7807C58.743 20.719 58.8973 20.6882 59.0824 20.6882C59.2521 20.6882 59.4218 20.719 59.5761 20.7807C59.7304 20.8424 59.8692 20.935 59.9772 21.043C60.0852 21.151 60.1777 21.2898 60.2395 21.4441C60.3012 21.5984 60.332 21.7527 60.332 21.9378C60.3474 22.1229 60.3012 22.2772 60.2395 22.4315ZM59.3755 22.0612C59.4989 22.0458 59.5915 21.9995 59.6686 21.9224C59.7458 21.8452 59.7921 21.7372 59.7921 21.583C59.7921 21.4133 59.7458 21.2898 59.6378 21.1973C59.5452 21.1047 59.3755 21.0584 59.175 21.0584H58.4962V22.8017H58.8201V22.0921H59.0515L59.4835 22.8017H59.8229L59.3755 22.0612ZM59.2058 21.8144C59.1595 21.8144 59.1133 21.8144 59.0515 21.8144H58.8201V21.3207H59.0515C59.0978 21.3207 59.1441 21.3207 59.2058 21.3207C59.2521 21.3207 59.2984 21.3361 59.3447 21.3515C59.3909 21.367 59.4218 21.3978 59.4372 21.4287C59.4527 21.4595 59.4681 21.5058 59.4681 21.5675C59.4681 21.6292 59.4527 21.6755 59.4372 21.7064C59.4064 21.7372 59.3755 21.7681 59.3447 21.7835C59.2984 21.7989 59.2521 21.8144 59.2058 21.8144Z" fill="#0B0A0A"/>
</svg>
