<svg width="116" height="17" viewBox="0 0 116 17" fill="none" xmlns="http://www.w3.org/2000/svg">
<path d="M70.1658 4.89773L70.2 4.84313L70.1634 4.89773C69.5436 4.47233 68.6472 4.27493 67.7694 4.27493C65.7798 4.27673 64.3578 5.26073 63.4224 6.64313C62.4924 8.02973 62.0544 9.81593 62.0544 11.4059C62.0544 12.5549 62.2272 13.6265 62.9274 14.5937C63.2724 15.0659 64.1088 16.2005 66.8124 16.2041C68.6898 16.2029 69.579 15.7163 70.0608 15.4349L70.1412 15.3263C70.2354 14.9147 70.5522 13.0457 70.6812 12.5771L70.584 12.5027C69.6348 13.2551 68.5998 13.8047 67.4244 13.8047C66.636 13.8047 66.0366 13.6175 65.6322 13.2563C65.229 12.8981 65.0316 12.3683 65.0316 11.7119C65.0316 11.4701 65.0514 11.2493 65.07 11.0075L65.076 10.9505L65.1312 10.9487C66.969 10.9019 67.9056 10.8767 69.4446 10.8767C69.9474 10.8767 70.5144 10.8791 71.199 10.8845L71.3178 10.8017C71.4708 10.0883 71.6364 9.27233 71.6364 8.26853C71.6364 7.37753 71.5416 5.79353 70.1658 4.89773ZM68.9484 8.80133L68.9382 8.85353L67.137 8.87633L65.3562 8.89973L65.3724 8.83973L65.3808 8.81333C65.4168 8.68853 65.4558 8.55113 65.5008 8.41133C65.6232 8.01893 65.7984 7.59173 66.1086 7.19993C66.1632 7.13333 66.2202 7.06493 66.2808 7.00133C66.8328 6.39773 67.3554 6.30413 67.6938 6.30413C68.1708 6.30413 68.52 6.49493 68.7444 6.77873C68.7822 6.82853 68.814 6.87713 68.8452 6.93293C68.9562 7.12193 69.024 7.33673 69.0486 7.56173C69.0606 7.64213 69.0648 7.72673 69.0648 7.80773C69.0654 8.14493 69.0054 8.47613 68.9484 8.80133ZM61.9548 6.77333L61.8324 6.89453L60.0588 6.84893L59.2374 10.7165C59.124 11.2013 58.8732 12.4115 58.8732 12.8015C58.8708 13.1657 59.0082 13.4141 59.2002 13.5617C59.3898 13.7111 59.6274 13.7603 59.8398 13.7609C60.333 13.7609 60.5052 13.6235 60.834 13.4981L60.8922 13.5521L60.456 15.7799L60.306 15.9257C59.6988 16.0541 59.247 16.1597 58.608 16.1597C56.958 16.1501 55.767 15.5963 55.7604 13.6733C55.7604 12.7733 56.124 11.1347 56.3946 9.91673L57.0492 6.84653L55.6566 6.89393L55.5726 6.77273L55.98 4.60913L56.1066 4.53953H57.5214L58.0872 1.69013L58.1976 1.56533C59.6142 1.20293 60.0228 1.02833 61.3134 0.603529L61.3818 0.680329L60.954 2.51573L60.5106 4.58273L62.3274 4.52693L62.3748 4.62173L61.9548 6.77333ZM83.8272 3.12353L83.7294 3.23213L79.0488 3.22073L78.2874 7.12613L82.3836 7.00253L82.4442 7.09973C82.107 8.22233 82.029 8.53973 81.8022 9.51893L81.6984 9.61793L77.8032 9.60953L77.2914 12.3191L76.6434 15.8381L76.557 15.9191L73.2024 16.0055L73.1616 15.9191L73.743 12.9233L74.6328 8.69393C75.3036 5.40773 75.4956 4.35833 76.1298 0.778129L76.2306 0.679729H81.132L84.2448 0.598129L84.3048 0.679729L83.8272 3.12353ZM90.4392 5.02433C89.7882 4.56533 88.749 4.32953 87.3234 4.32953C86.6196 4.32953 85.9098 4.39733 85.197 4.53233C84.5598 4.65353 84.1644 4.75613 83.8278 4.85273L83.7354 4.94633L83.2728 7.31573L83.4222 7.40573C83.7192 7.26893 84.1548 7.10093 84.7296 6.89753C85.3176 6.69053 85.8588 6.58673 86.3472 6.58673C87.0618 6.58673 87.6066 6.68453 87.9768 6.88673C88.3584 7.09193 88.632 7.54253 88.6302 8.03813C88.6302 8.16053 88.62 8.26793 88.6032 8.36513C88.5846 8.45633 88.5732 8.52353 88.5684 8.56193L88.5606 8.61233C88.5606 8.61233 88.3296 8.62853 88.0842 8.64953C87.9222 8.66513 87.7158 8.68853 87.477 8.71613C87.0864 8.75813 86.637 8.81333 86.2446 8.87933C85.3038 9.03593 82.6566 9.44813 81.8622 11.2211C81.0294 12.6737 81.1716 14.6009 81.9894 15.5387C82.278 15.8705 82.7178 16.1825 83.3124 16.3025L83.3112 16.3043C83.337 16.3133 83.4282 16.3247 83.4486 16.3295C85.7376 16.6835 87.3798 14.6891 87.3798 14.6891L87.1344 15.9185L87.2352 16.0049L89.8068 15.9185L89.9136 15.8255L91.4274 8.22233C91.4586 8.06213 91.4844 7.87253 91.5036 7.65713C91.5204 7.43873 91.5312 7.26173 91.5312 7.13153C91.5294 6.15833 91.089 5.48273 90.4392 5.02433ZM87.7914 12.6263C87.7914 12.6263 87.1764 13.5923 86.2908 13.9385C85.4022 14.2823 84.7608 14.0111 84.51 13.6673C84.3072 13.3985 83.886 12.5501 84.6858 11.5955C85.497 10.6313 88.1778 10.5695 88.1778 10.5695L87.7914 12.6263ZM100.277 4.17473L99.6468 7.44473L99.5148 7.57853C99.3348 7.54613 99.1056 7.51973 98.8344 7.51973C97.9854 7.51973 96.7782 7.79213 95.8338 9.04373L95.8236 9.05393L94.5228 15.8393L94.431 15.9203L91.6062 16.0061L91.533 15.9317L93.7548 4.54073L93.8754 4.42133L96.6714 4.15073L96.7818 4.27013L96.4596 5.92013L96.597 5.79533C97.1814 5.26553 97.6998 4.89953 98.2788 4.56953C98.8524 4.23953 99.4278 4.07573 100.006 4.07573C100.062 4.07573 100.119 4.07573 100.179 4.07813L100.277 4.17473ZM115.4 7.04093C115.4 7.72913 115.244 8.44373 115.092 9.13913L113.78 15.8387L113.679 15.9197L110.722 16.0241L110.649 15.9197C110.649 15.9197 112.164 8.51933 112.164 8.15153C112.164 7.81613 111.987 6.91733 111.046 6.91733C110.305 6.91733 109.539 7.66553 109.539 7.66553L107.942 15.8393L107.844 15.9203L106.571 15.9647L105.432 16.0031L104.869 16.0217L104.835 15.9755L104.798 15.9197C104.798 15.9197 105.027 14.7935 105.31 13.3985H105.302C105.744 11.2169 106.309 8.37593 106.309 8.15153C106.309 7.81613 106.132 6.91733 105.19 6.91733C104.452 6.91733 103.685 7.66553 103.685 7.66553L102.088 15.8393L101.987 15.9203L101.531 15.9359L99.0144 16.0205L98.9502 15.9203L101.167 4.54073L101.278 4.42853L104.227 4.15073L104.347 4.27013L104.034 5.87213C104.034 5.87213 105.457 4.31213 107.272 4.27613C108.965 4.24433 109.319 5.87213 109.319 5.87213C109.319 5.87213 111.004 4.23893 112.801 4.27613C113.71 4.28333 115.395 4.68413 115.4 7.04093ZM53.6592 5.02433C53.0094 4.56533 51.9714 4.32953 50.5464 4.32953C49.8402 4.32953 49.1316 4.39733 48.4212 4.53233C47.7828 4.65353 47.3874 4.75613 47.0496 4.85273L46.9578 4.94633L46.4952 7.31573L46.6446 7.40573C46.9416 7.26893 47.3778 7.10093 47.9514 6.89753C48.54 6.69053 49.0806 6.58673 49.569 6.58673C50.2842 6.58673 50.8254 6.68453 51.1998 6.88673C51.5796 7.09193 51.8514 7.54253 51.8514 8.03813C51.8514 8.16053 51.843 8.26793 51.8262 8.36513C51.8064 8.45633 51.7956 8.52353 51.7908 8.56193L51.7836 8.61233C51.7836 8.61233 51.5532 8.62853 51.3078 8.64953C51.1464 8.66513 50.9376 8.68853 50.7006 8.71613C50.3094 8.75813 49.8594 8.81333 49.4688 8.87933C48.5262 9.03593 45.8802 9.44813 45.0852 11.2211C44.2524 12.6737 44.3952 14.6009 45.213 15.5387C45.4992 15.8705 45.9402 16.1825 46.5354 16.3025L46.5342 16.3043C46.5594 16.3133 46.6512 16.3247 46.6704 16.3295C48.9606 16.6835 50.6028 14.6891 50.6028 14.6891L50.3568 15.9185L50.457 16.0049L53.0304 15.9185L53.1366 15.8255L54.6486 8.22233C54.6816 8.06213 54.7074 7.87253 54.7284 7.65713C54.7434 7.43873 54.7548 7.26173 54.7548 7.13153C54.7524 6.15833 54.3138 5.48273 53.6592 5.02433ZM51.0132 12.6263C51.0132 12.6263 50.4 13.5923 49.5132 13.9385C48.6252 14.2823 47.985 14.0111 47.7312 13.6673C47.5302 13.3985 47.1096 12.5501 47.9112 11.5955C48.7194 10.6313 51.4026 10.5695 51.4026 10.5695L51.0132 12.6263ZM44.8146 6.77333L44.691 6.89453L42.9192 6.84893L42.0984 10.7165C41.9832 11.2013 41.7312 12.4115 41.7312 12.8015C41.7306 13.1657 41.8668 13.4141 42.0582 13.5617C42.2502 13.7111 42.4866 13.7603 42.6984 13.7609C43.1922 13.7609 43.365 13.6235 43.6926 13.4981L43.7514 13.5521L43.3158 15.7799L43.1658 15.9257C42.561 16.0541 42.1068 16.1597 41.4666 16.1597C39.8202 16.1501 38.6268 15.5963 38.6202 13.6733C38.6202 12.7733 38.985 11.1347 39.2544 9.91673L39.9084 6.84653L38.5152 6.89393L38.4312 6.77273L38.8398 4.60913L38.9658 4.53953H40.38L40.9464 1.69013L41.0574 1.56533C42.4716 1.20293 42.8814 1.02833 44.1744 0.603529L44.2404 0.680329L43.8126 2.51573L43.3728 4.58393L45.186 4.52813L45.2358 4.62293L44.8146 6.77333ZM38.1534 1.51853L37.6146 4.29293L37.4958 4.33073C37.2816 4.02953 37.152 3.91133 36.8538 3.68093C36.1914 3.17093 35.4054 2.88233 34.6032 2.88233C33.9744 2.88233 33.4518 3.07853 33.0894 3.40553C32.724 3.73133 32.5164 4.19513 32.5164 4.71293C32.5182 5.69213 33.1884 6.16973 34.3794 6.88313L34.8426 7.14593C35.8404 7.79993 37.3902 8.80313 37.3902 11.0801C37.3866 13.6679 35.7288 16.2641 31.7514 16.2701C30.7764 16.2701 29.8218 16.0955 28.9032 15.7529C28.2834 15.5153 27.9846 15.3095 27.6096 15.0317L27.5784 14.8535L28.1064 12.1469L28.2246 12.1073C28.464 12.4169 28.764 12.6701 29.2128 12.9671C30.171 13.6061 31.0902 13.6745 31.482 13.6745C32.886 13.6733 33.99 12.8717 33.99 11.6267C33.9888 10.5119 33.1074 9.95333 32.187 9.41093L31.5504 9.01853C30.5484 8.36333 29.1594 7.47233 29.1552 5.23853C29.1552 4.37933 29.4024 3.14633 30.1632 2.13653C31.1664 0.808729 32.7438 0.331729 34.3326 0.331729C36.378 0.331729 37.548 1.05593 38.0964 1.40693L38.1534 1.51853ZM9.3918 6.40553C10.1976 6.90293 11.3298 7.21913 12.6042 7.21913C13.8768 7.21913 15.0198 6.90293 15.8376 6.40553C16.6584 5.90873 17.142 5.23793 17.1438 4.52993C17.142 3.82013 16.6614 3.15593 15.8442 2.66333C15.0294 2.17133 13.8894 1.86173 12.6132 1.85933C11.3394 1.86173 10.2054 2.17133 9.396 2.66333C8.586 3.15653 8.1102 3.81833 8.1084 4.52813C8.1102 5.23973 8.5848 5.90873 9.3918 6.40553ZM9.5952 10.2431C8.7804 9.75053 7.6398 9.44033 6.366 9.44033C5.091 9.44033 3.957 9.75053 3.1482 10.2407C2.3376 10.7339 1.8618 11.3933 1.86 12.1031C1.8618 12.8153 2.3352 13.4843 3.144 13.9835C3.9492 14.4773 5.0814 14.7941 6.3564 14.7965C7.6314 14.7935 8.7744 14.4773 9.5916 13.9811C10.4106 13.4843 10.8942 12.8153 10.8966 12.1055C10.8936 11.3981 10.4124 10.7363 9.5952 10.2431ZM22.0638 10.2431C21.2478 9.75053 20.1066 9.44033 18.8322 9.44033C17.5584 9.44033 16.4226 9.75053 15.6156 10.2407C14.805 10.7333 14.3304 11.3933 14.3292 12.1049C14.3304 12.8147 14.8026 13.4837 15.612 13.9829C16.4178 14.4767 17.5494 14.7935 18.8232 14.7959C20.097 14.7929 21.2412 14.4767 22.0596 13.9805C22.8786 13.4837 23.3622 12.8147 23.3634 12.1049C23.3622 11.3981 22.881 10.7363 22.0638 10.2431ZM18.8184 7.58093C18.2424 7.58093 17.6862 7.63553 17.1576 7.73453C18.3126 6.91013 19.0236 5.77553 19.0236 4.52333C19.0236 2.00393 16.1628 -0.000671387 12.6108 -0.000671387C9.0594 -7.13867e-05 6.228 2.00453 6.228 4.52393C6.228 5.77793 6.9258 6.91253 8.0694 7.73693C7.5306 7.63553 6.9654 7.58093 6.3822 7.58093C2.8308 7.58093 0 9.58613 0 12.1031C0 14.6183 2.8158 16.6613 6.3684 16.6613C9.3918 16.6613 11.9262 15.1829 12.6162 13.1909C13.2888 15.1829 15.7794 16.6613 18.8034 16.6613C22.3554 16.6613 25.2324 14.6189 25.2324 12.1031C25.2324 9.58613 22.3686 7.58093 18.8184 7.58093ZM7.386 4.52153C7.3902 3.38693 8.2518 2.62073 8.757 2.26373C9.7674 1.54553 11.1366 1.15853 12.6114 1.15853C14.091 1.15853 15.465 1.54733 16.4832 2.26373C16.9926 2.62313 17.8644 3.39053 17.8686 4.52153C17.8518 6.41273 15.4236 7.91813 12.5958 7.92233C11.127 7.92233 9.7638 7.52933 8.7576 6.80573C7.881 6.17753 7.386 5.36813 7.386 4.52153ZM6.3684 15.5015C4.8978 15.5015 3.5358 15.1079 2.5266 14.3831C1.6542 13.7573 1.158 12.9479 1.158 12.1031C1.1628 10.9685 2.0238 10.2005 2.5272 9.84293C3.5388 9.12953 4.9074 8.74013 6.3828 8.73773C7.863 8.74013 9.237 9.12893 10.2552 9.84593C10.7652 10.2047 11.6382 10.9709 11.643 12.1031C11.6256 13.9919 9.1956 15.4973 6.3684 15.5015ZM12.618 11.0183C12.3396 10.2161 11.7612 9.49973 10.9722 8.93273C11.49 9.02933 12.033 9.08093 12.5928 9.08093C13.1688 9.08093 13.725 9.02693 14.2554 8.92733C13.4688 9.49493 12.891 10.2119 12.618 11.0183ZM18.8028 15.5015C17.334 15.5015 15.9708 15.1079 14.9628 14.3831C14.0886 13.7573 13.5912 12.9479 13.5912 12.1031C13.5948 10.9685 14.4588 10.2023 14.964 9.84293C15.9732 9.12953 17.343 8.74013 18.8178 8.73773C20.298 8.74013 21.6714 9.12893 22.6926 9.84593C23.202 10.2047 24.0714 10.9727 24.0738 12.1031C24.06 13.9919 21.6306 15.4973 18.8028 15.5015Z" fill="#0B0A0A"/>
</svg>
