<svg width="126" height="17" viewBox="0 0 126 17" fill="none" xmlns="http://www.w3.org/2000/svg">
<g clip-path="url(#clip0_403_954)">
<path d="M54.3211 10.6473H62.6339L58.2429 3.55635L50.1702 16.3636H46.4993L56.3175 0.998164C56.5315 0.691551 56.8159 0.440696 57.1468 0.266613C57.4778 0.0925298 57.8456 0.000289133 58.2195 -0.0023817C58.5934 -0.00505254 58.9626 0.0819242 59.2959 0.251262C59.6293 0.4206 59.9173 0.667367 60.1357 0.970891L69.9811 16.3636H66.3102L64.5811 13.5H56.1702L54.3375 10.6473M92.4811 13.5V0.15271H89.3611V14.8145C89.3606 15.0183 89.4014 15.22 89.481 15.4075C89.5607 15.5951 89.6777 15.7644 89.8248 15.9054C89.9724 16.0565 90.1489 16.1764 90.3438 16.2579C90.5387 16.3394 90.748 16.3809 90.9593 16.38H105.141L106.99 13.5163H92.4648M40.8975 11.1163C42.3514 11.1163 43.7457 10.5388 44.7737 9.51076C45.8018 8.48272 46.3793 7.0884 46.3793 5.63453C46.3793 4.18066 45.8018 2.78634 44.7737 1.7583C43.7457 0.730257 42.3514 0.15271 40.8975 0.15271H27.2611V16.3636H30.3757V3.0218H40.7066C41.4024 3.0218 42.0697 3.29822 42.5618 3.79025C43.0538 4.28227 43.3302 4.94961 43.3302 5.64544C43.3302 6.34127 43.0538 7.0086 42.5618 7.50063C42.0697 7.99266 41.4024 8.26907 40.7066 8.26907H31.9193L41.2248 16.3636H45.7466L39.4957 11.1163H40.8975ZM8.10476 16.3636H17.5248C19.6373 16.3088 21.645 15.4311 23.1198 13.9175C24.5946 12.4039 25.42 10.3742 25.42 8.26089C25.42 6.1476 24.5946 4.11787 23.1198 2.60429C21.645 1.09071 19.6373 0.212981 17.5248 0.158164H8.10476C7.02301 0.130095 5.94659 0.318918 4.93897 0.713498C3.93136 1.10808 3.01295 1.70043 2.23792 2.45561C1.46288 3.2108 0.846912 4.11353 0.426328 5.11057C0.00574358 6.10761 -0.210938 7.17877 -0.210938 8.26089C-0.210938 9.34301 0.00574358 10.4142 0.426328 11.4112C0.846912 12.4083 1.46288 13.311 2.23792 14.0662C3.01295 14.8214 3.93136 15.4137 4.93897 15.8083C5.94659 16.2029 7.02301 16.3917 8.10476 16.3636ZM17.312 13.5109H8.31204C6.95037 13.467 5.65917 12.8952 4.71148 11.9164C3.76379 10.9377 3.23392 9.62872 3.23392 8.26635C3.23392 6.90397 3.76379 5.59501 4.71148 4.61626C5.65917 3.63751 6.95037 3.06572 8.31204 3.0218H17.312C18.015 2.99913 18.7153 3.118 19.3714 3.37136C20.0275 3.62472 20.626 4.00739 21.1313 4.49663C21.6366 4.98587 22.0383 5.5717 22.3127 6.21929C22.5871 6.86688 22.7285 7.56303 22.7285 8.26635C22.7285 8.96967 22.5871 9.66581 22.3127 10.3134C22.0383 10.961 21.6366 11.5468 21.1313 12.0361C20.626 12.5253 20.0275 12.908 19.3714 13.1613C18.7153 13.4147 18.015 13.5336 17.312 13.5109ZM76.4884 16.3636H86.1048L87.9266 13.5109H76.7011C75.9982 13.5336 75.2978 13.4147 74.6417 13.1613C73.9856 12.908 73.3872 12.5253 72.8819 12.0361C72.3766 11.5468 71.9748 10.961 71.7005 10.3134C71.4261 9.66581 71.2847 8.96967 71.2847 8.26635C71.2847 7.56303 71.4261 6.86688 71.7005 6.21929C71.9748 5.5717 72.3766 4.98587 72.8819 4.49663C73.3872 4.00739 73.9856 3.62472 74.6417 3.37136C75.2978 3.118 75.9982 2.99913 76.7011 3.0218H85.8375L87.6811 0.158164H76.4884C75.4066 0.130095 74.3302 0.318918 73.3226 0.713498C72.315 1.10808 71.3966 1.70043 70.6215 2.45561C69.8465 3.2108 69.2305 4.11353 68.81 5.11057C68.3894 6.10761 68.1727 7.17877 68.1727 8.26089C68.1727 9.34301 68.3894 10.4142 68.81 11.4112C69.2305 12.4083 69.8465 13.311 70.6215 14.0662C71.3966 14.8214 72.315 15.4137 73.3226 15.8083C74.3302 16.2029 75.4066 16.3917 76.4884 16.3636ZM114.599 13.5109C113.456 13.5113 112.345 13.1386 111.433 12.4495C110.521 11.7603 109.86 10.7923 109.548 9.69271H122.868L124.701 6.83453H109.548C109.859 5.73443 110.52 4.76596 111.432 4.07666C112.344 3.38736 113.456 3.01501 114.599 3.01635H123.741L125.568 0.15271H114.387C112.274 0.207526 110.266 1.08526 108.792 2.59884C107.317 4.11242 106.491 6.14215 106.491 8.25544C106.491 10.3687 107.317 12.3985 108.792 13.912C110.266 15.4256 112.274 16.3033 114.387 16.3582H124.003L125.83 13.5054H114.594" fill="#0B0A0A"/>
</g>
<defs>
<clipPath id="clip0_403_954">
<rect width="126" height="16.3636" fill="white"/>
</clipPath>
</defs>
</svg>
