<svg width="61" height="22" viewBox="0 0 61 22" fill="none" xmlns="http://www.w3.org/2000/svg">
<g clip-path="url(#clip0_403_946)">
<path d="M3.50953 15.1238C3.76731 15.8079 4.1242 16.3928 4.58027 16.8786C5.03633 17.3644 5.57664 17.7361 6.20118 17.9939C6.82578 18.2517 7.50488 18.3806 8.23853 18.3806C8.95238 18.3806 9.62154 18.2467 10.2461 17.979C10.8707 17.7113 11.416 17.3346 11.8819 16.8488C12.3479 16.363 12.7098 15.7831 12.9675 15.1089C13.2253 14.4348 13.3542 13.6814 13.3542 12.8485V0H16.4771V20.8194H13.3839V18.8861C12.6899 19.6197 11.872 20.1848 10.9302 20.5815C9.9883 20.978 8.97219 21.1763 7.88164 21.1763C6.77123 21.1763 5.73524 20.9829 4.77355 20.5963C3.81193 20.2096 2.9791 19.6595 2.27526 18.9456C1.57142 18.2318 1.01618 17.3743 0.609733 16.373C0.203222 15.3716 0 14.2564 0 13.027V0H3.1229V12.8485C3.1229 13.6814 3.25175 14.4397 3.50953 15.1238Z" fill="#0B0A0A"/>
<path d="M21.8633 0V7.58418C22.5573 6.89021 23.3603 6.34004 24.2724 5.93353C25.1845 5.52702 26.1759 5.32379 27.2466 5.32379C28.357 5.32379 29.3978 5.53195 30.3695 5.94833C31.341 6.36472 32.1837 6.92983 32.8975 7.64367C33.6114 8.35752 34.1765 9.20015 34.5928 10.1717C35.0092 11.1433 35.2174 12.1744 35.2174 13.2649C35.2174 14.3554 35.0092 15.3815 34.5928 16.3431C34.1765 17.3048 33.6114 18.1426 32.8975 18.8563C32.1837 19.5702 31.341 20.1353 30.3695 20.5516C29.3978 20.968 28.3569 21.1762 27.2466 21.1762C26.1758 21.1762 25.1795 20.973 24.2575 20.5665C23.3355 20.16 22.5275 19.6098 21.8335 18.9158V20.8193H18.8594V0H21.8633ZM22.2053 15.3171C22.473 15.9516 22.8448 16.5068 23.3207 16.9827C23.7965 17.4586 24.3517 17.8353 24.9862 18.1129C25.6207 18.3905 26.3048 18.5293 27.0384 18.5293C27.7523 18.5293 28.4264 18.3905 29.0608 18.1129C29.6953 17.8353 30.2455 17.4586 30.7116 16.9827C31.1775 16.5069 31.5493 15.9516 31.8268 15.3171C32.1044 14.6826 32.2432 13.9986 32.2432 13.2649C32.2432 12.5313 32.1044 11.8422 31.8268 11.1978C31.5493 10.5534 31.1775 9.9933 30.7116 9.51743C30.2455 9.04162 29.6954 8.66979 29.0608 8.40214C28.4263 8.13449 27.7522 8.00056 27.0384 8.00056C26.3246 8.00056 25.6505 8.13442 25.016 8.40214C24.3815 8.66985 23.8263 9.04162 23.3504 9.51743C22.8746 9.9933 22.4978 10.5534 22.2202 11.1978C21.9427 11.8422 21.8039 12.5313 21.8039 13.2649C21.8038 13.9986 21.9377 14.6826 22.2053 15.3171Z" fill="#0B0A0A"/>
<path d="M36.9072 10.2015C37.3037 9.24974 37.8491 8.41204 38.543 7.68833C39.2369 6.96461 40.0599 6.39456 41.0116 5.97818C41.9634 5.5618 42.9944 5.35364 44.1048 5.35364C45.1953 5.35364 46.2066 5.55192 47.1385 5.94843C48.0704 6.345 48.8734 6.89524 49.5476 7.59915C50.2217 8.30299 50.7472 9.13582 51.1238 10.0974C51.5006 11.0591 51.689 12.1051 51.689 13.2353V14.2168H39.3461C39.4453 14.8314 39.6436 15.4015 39.941 15.9269C40.2384 16.4523 40.6101 16.9084 41.0562 17.295C41.5024 17.6817 42.008 17.9841 42.5731 18.2021C43.1382 18.4202 43.7379 18.5293 44.3725 18.5293C46.1769 18.5293 47.6342 17.7857 48.7446 16.2986L50.9157 17.9047C50.1623 18.9159 49.2304 19.709 48.1201 20.284C47.0096 20.859 45.7605 21.1465 44.3726 21.1465C43.2423 21.1465 42.1865 20.9482 41.205 20.5517C40.2235 20.1552 39.371 19.5999 38.6473 18.8861C37.9235 18.1722 37.3535 17.3345 36.9371 16.3729C36.5207 15.4113 36.3125 14.3653 36.3125 13.2351C36.3124 12.1645 36.5107 11.1532 36.9072 10.2015ZM41.086 9.02664C40.2433 9.73055 39.6832 10.6674 39.4056 11.8373H48.6554C48.3976 10.6674 47.8473 9.73055 47.0046 9.02664C46.1619 8.3228 45.1755 7.97085 44.0453 7.97085C42.9151 7.97085 41.9287 8.3228 41.086 9.02664Z" fill="#0B0A0A"/>
<path d="M57.3151 9.3686C56.6806 10.0626 56.3634 11.0044 56.3634 12.1941V20.8193H53.3594V5.65091H56.3335V7.52466C56.7103 6.90999 57.2011 6.42418 57.8058 6.06729C58.4105 5.71034 59.1293 5.53186 59.9621 5.53186H61.0031V8.32762H59.7539C58.7625 8.32768 57.9496 8.67463 57.3151 9.3686Z" fill="#0B0A0A"/>
</g>
<defs>
<clipPath id="clip0_403_946">
<rect width="61" height="21.1763" fill="white"/>
</clipPath>
</defs>
</svg>
