<svg width="25" height="21" viewBox="0 0 25 21" fill="none" xmlns="http://www.w3.org/2000/svg">
<path d="M11.1128 1.6534C11.537 0.918557 12.5977 0.918557 13.022 1.6534L16.5161 7.70548C16.9404 8.44032 16.4101 9.35888 15.5615 9.35888H8.57321C7.72468 9.35888 7.19435 8.44032 7.61862 7.70548L11.1128 1.6534Z" fill="white"/>
<path d="M2.9852 15.6153L0.333876 20.0341C0.186938 20.279 0.363342 20.5906 0.648938 20.5906H4.15944C4.28851 20.5906 4.4081 20.5229 4.47451 20.4122L8.08911 14.3879C8.23605 14.143 8.05964 13.8314 7.77405 13.8314H6.13582C4.8452 13.8314 3.64922 14.5086 2.9852 15.6153Z" fill="white"/>
<path d="M12.3776 14.0047L10.4427 17.1174C10.2906 17.3622 10.4666 17.6788 10.7548 17.6788H17.6796C17.8114 17.6788 17.9332 17.7495 17.9986 17.864L19.4508 20.4054C19.5162 20.5198 19.638 20.5905 19.7698 20.5905H23.6825C23.97 20.5905 24.1461 20.2753 23.9954 20.0305L21.2566 15.5799C20.5879 14.4932 19.4033 13.8313 18.1274 13.8313H12.6897C12.5627 13.8313 12.4447 13.8969 12.3776 14.0047Z" fill="#DADADA"/>
</svg>
