<svg width="35" height="30" viewBox="0 0 35 30" fill="none" xmlns="http://www.w3.org/2000/svg">
<path d="M15.7058 2.33757C16.3056 1.29865 17.8052 1.29865 18.405 2.33757L23.345 10.894C23.9449 11.9329 23.1951 13.2315 21.9954 13.2315H12.1154C10.9157 13.2315 10.1659 11.9329 10.7658 10.894L15.7058 2.33757Z" fill="#9E9E9E"/>
<path d="M4.22047 22.0767L0.472032 28.3241C0.264292 28.6703 0.513693 29.1108 0.917467 29.1108H5.88061C6.06307 29.1108 6.23216 29.0151 6.32604 28.8586L11.4364 20.3414C11.6441 19.9952 11.3947 19.5547 10.9909 19.5547H8.6748C6.85013 19.5547 5.15925 20.512 4.22047 22.0767Z" fill="black"/>
<path d="M17.4946 19.7999L14.759 24.2006C14.5439 24.5466 14.7927 24.9943 15.2002 24.9943H24.9905C25.1769 24.9943 25.349 25.0942 25.4415 25.2561L27.4946 28.8491C27.5871 29.0109 27.7592 29.1108 27.9456 29.1108H33.4774C33.8837 29.1108 34.1328 28.6652 33.9198 28.3191L30.0476 22.0268C29.1022 20.4905 27.4274 19.5547 25.6236 19.5547H17.9358C17.7562 19.5547 17.5894 19.6474 17.4946 19.7999Z" fill="#6D6D6D"/>
</svg>
